<svg xmlns="http://www.w3.org/2000/svg" xmlns:xlink="http://www.w3.org/1999/xlink" width="500" zoomAndPan="magnify" viewBox="0 0 375 374.999991" height="500" preserveAspectRatio="xMidYMid meet" version="1.0"><defs><filter x="0%" y="0%" width="100%" height="100%" id="1288581c29"><feColorMatrix values="0 0 0 0 1 0 0 0 0 1 0 0 0 0 1 0 0 0 1 0" color-interpolation-filters="sRGB"/></filter><g/><mask id="8d2abbd627"><g filter="url(#1288581c29)"><rect x="-37.5" width="450" fill="#000000" y="-37.499999" height="449.999989" fill-opacity="0.7686"/></g></mask><clipPath id="a083ef5be8"><path d="M 0.558594 5 L 151.519531 5 L 151.519531 214.878906 L 0.558594 214.878906 Z M 0.558594 5 " clip-rule="nonzero"/></clipPath><clipPath id="57f0757854"><rect x="0" width="152" y="0" height="215"/></clipPath><clipPath id="4c389a5f90"><path d="M 212.496094 80 L 363.996094 80 L 363.996094 290 L 212.496094 290 Z M 212.496094 80 " clip-rule="nonzero"/></clipPath></defs><g fill="#ffa500" fill-opacity="1"><g transform="translate(19.975082, 194.366505)"><g><path d="M 10.316406 -51.296875 C 9.804688 -52.953125 6.570312 -51.878906 6.816406 -50.523438 C 7.28125 -47.945312 8.105469 -45.714844 9.421875 -43.851562 C 7.277344 -38.703125 9.660156 -30.171875 16.121094 -28.894531 C 9.878906 -27.414062 4.066406 -22.019531 4.433594 -14.175781 C 4.816406 -3.953125 14.640625 -1.878906 22.480469 -3.441406 C 31 -5.121094 37.707031 -10.605469 40.351562 -20.746094 C 40.566406 -21.488281 37.808594 -22.808594 37.503906 -21.773438 C 35.386719 -14.527344 29.984375 -10.328125 23.65625 -9.324219 C 19.507812 -8.644531 13.617188 -9.464844 13.554688 -15.617188 C 13.3125 -22.363281 20.628906 -25.648438 26.054688 -25.859375 C 27.632812 -26.425781 27.824219 -30.382812 26.421875 -31.179688 C 20.660156 -30.90625 17.03125 -34.308594 16.683594 -38.167969 C 18.9375 -36.542969 22.53125 -35.652344 25.671875 -36.082031 C 32.148438 -37.046875 35.664062 -40.832031 34.921875 -46.089844 C 33.714844 -55.460938 17.78125 -54.539062 11.867188 -47.375 C 11.089844 -48.566406 10.628906 -49.953125 10.316406 -51.296875 Z M 17.230469 -42.886719 C 19.191406 -47.511719 26.601562 -48.363281 27.113281 -44.746094 C 27.378906 -42.902344 26.300781 -41.519531 24.117188 -41.191406 C 21.960938 -40.730469 19.472656 -41.332031 17.230469 -42.886719 Z M 17.230469 -42.886719 "/></g></g></g><g fill="#ffa500" fill-opacity="1"><g transform="translate(59.360356, 187.236067)"><g><path d="M 9.738281 -1.132812 C 16.570312 -2.441406 20.4375 -8.53125 22.671875 -17.476562 C 22.929688 -18.363281 20.058594 -19.523438 19.8125 -18.570312 C 17.765625 -10.917969 13.605469 -7.222656 10.40625 -6.714844 C 7.25 -6.355469 6.601562 -10.714844 6.945312 -16.941406 C 7.039062 -19.898438 7.441406 -23.472656 7.832031 -27.113281 L 13.730469 -28.179688 C 14.730469 -28.851562 14.972656 -32.535156 13.351562 -33.363281 L 8.269531 -32.441406 C 8.851562 -37.730469 9.453125 -42.527344 10.160156 -47.136719 C 9.414062 -49.3125 2.039062 -48.675781 1.15625 -46.976562 C 0.582031 -43.582031 -0.355469 -36.761719 -1.085938 -30.75 L -3.59375 -30.292969 C -4.820312 -29.722656 -4.976562 -25.5625 -3.488281 -25.0625 L -1.589844 -25.40625 C -2.558594 -12.207031 -2.667969 1.113281 9.738281 -1.132812 Z M 9.738281 -1.132812 "/></g></g></g><g fill="#ffa500" fill-opacity="1"><g transform="translate(81.052762, 183.308803)"><g><path d="M 1.699219 -47.847656 C 0.0078125 -36.6875 -2.039062 -16.292969 -3.082031 -0.773438 C -3.324219 2.140625 6.234375 -0.359375 6.316406 -1.84375 C 6.609375 -7.566406 6.972656 -12.535156 7.542969 -19.429688 C 9.167969 -22.453125 11.652344 -25.355469 13.472656 -25.753906 C 15.671875 -26.359375 15.960938 -24.382812 15.691406 -22.375 C 15.464844 -20.164062 14.601562 -12.933594 14.691406 -9.730469 C 14.898438 -5.496094 16.507812 -2.007812 22.683594 -3.476562 C 29.660156 -5.160156 33.136719 -13.421875 34.996094 -19.777344 C 35.269531 -20.597656 32.328125 -21.746094 32.082031 -20.789062 C 30.890625 -15.394531 27.792969 -10.074219 25.363281 -9.5625 C 22.078125 -8.757812 24.085938 -17.382812 24.84375 -24.800781 C 25.488281 -30.519531 23.433594 -34.136719 17.742188 -33.105469 C 13.671875 -32.371094 10.097656 -28.152344 8.03125 -25.257812 C 8.75 -33.648438 9.828125 -43.15625 10.726562 -47.871094 C 10.65625 -49.816406 3.273438 -49.601562 1.699219 -47.847656 Z M 1.699219 -47.847656 "/></g></g></g><g fill="#ffa500" fill-opacity="1"><g transform="translate(115.150511, 177.135636)"><g><path d="M 4.714844 -34.667969 C 7.96875 -35.257812 9.769531 -37.683594 9.6875 -40.46875 C 9.601562 -43.253906 7.539062 -44.980469 4.679688 -44.535156 C 1.695312 -43.996094 -0.171875 -41.554688 -0.144531 -38.691406 C -0.152344 -36.027344 2.070312 -34.191406 4.714844 -34.667969 Z M 5.589844 -0.453125 C 12.875 -1.980469 16.699219 -10.234375 18.601562 -16.738281 C 18.808594 -17.546875 15.925781 -18.777344 15.6875 -17.753906 C 14.328125 -12.117188 10.855469 -6.9375 8.078125 -6.433594 C 6.867188 -6.144531 6.4375 -7.746094 6.433594 -10.476562 C 6.554688 -14.839844 7.316406 -20.296875 8.242188 -29.496094 C 7.085938 -31.246094 0.523438 -30.761719 -0.5625 -29.023438 C -1.382812 -21.171875 -2.097656 -14.671875 -2.421875 -7.964844 C -2.683594 -2.453125 -0.679688 0.894531 5.589844 -0.453125 Z M 5.589844 -0.453125 "/></g></g></g><g fill="#ffa500" fill-opacity="1"><g transform="translate(132.775596, 173.944733)"><g><path d="M 12.679688 -32.050781 C 2.554688 -30.359375 -3.226562 -20.910156 -2.003906 -12.238281 C -0.980469 -5.421875 4.78125 -0.65625 11.960938 -1.605469 C 19.265625 -2.648438 26.402344 -6.53125 29.84375 -18.84375 C 30.058594 -19.585938 27.175781 -20.8125 26.929688 -19.859375 C 25.007812 -12.300781 20.414062 -8.667969 15.535156 -7.78125 C 11.128906 -6.984375 7.710938 -9.238281 7.21875 -14.257812 C 6.621094 -20.660156 9.679688 -26.1875 12.929688 -26.425781 C 15.269531 -26.640625 14.25 -22.601562 13.4375 -20.914062 C 14.117188 -19.078125 20.085938 -20.160156 21.367188 -22.351562 C 23.683594 -26.972656 21.992188 -33.597656 12.679688 -32.050781 Z M 12.679688 -32.050781 "/></g></g></g><g fill="#ffa500" fill-opacity="1"><g transform="translate(161.653614, 168.716563)"><g><path d="M 11.46875 -1.234375 C 15.941406 -2.046875 19.535156 -4.238281 21.066406 -7.382812 C 25.757812 -8.164062 30.132812 -11.054688 32.417969 -19.3125 C 32.566406 -20.039062 29.765625 -21.210938 29.507812 -20.324219 C 27.992188 -14.378906 24.96875 -11.730469 22.082031 -11.070312 C 22.335938 -17.765625 18.472656 -22.105469 15.414062 -30.09375 C 18.464844 -36.457031 9.992188 -37.234375 5.570312 -31.113281 C 1.878906 -25.964844 -0.949219 -18.382812 -2.652344 -12.332031 C -2.941406 -11.230469 -0.121094 -10.339844 0.25 -11.386719 C 1.804688 -16.710938 4.589844 -24.144531 7.3125 -28.066406 C 8.988281 -23.050781 11.941406 -18.335938 12.976562 -13.410156 C 10.976562 -12.839844 10.636719 -9.695312 12.695312 -8.390625 C 12.273438 -7.613281 11.289062 -6.875 10.269531 -6.691406 C 8.304688 -6.335938 6.574219 -7.769531 6.25 -9.953125 C 4.8125 -10.535156 1.890625 -8.882812 1.707031 -6.820312 C 3.132812 -2.039062 7.808594 -0.574219 11.46875 -1.234375 Z M 11.46875 -1.234375 "/></g></g></g><g fill="#5e9918" fill-opacity="1"><g transform="translate(138.844755, 214.637788)"><g><path d="M 2.546875 -0.59375 C 2.328125 -0.539062 2.171875 -0.726562 2.078125 -1.15625 C 1.878906 -1.96875 2.210938 -3.007812 3.078125 -4.28125 C 3.660156 -5.15625 4.019531 -5.972656 4.15625 -6.734375 C 4.289062 -7.492188 4.285156 -8.835938 4.140625 -10.765625 L 2.9375 -28.75 C 2.882812 -29.476562 3.09375 -30.257812 3.5625 -31.09375 C 4.039062 -31.9375 4.671875 -32.6875 5.453125 -33.34375 C 6.234375 -34.007812 7.03125 -34.4375 7.84375 -34.625 C 8.40625 -34.75 8.726562 -34.632812 8.8125 -34.28125 C 8.851562 -34.101562 8.789062 -33.679688 8.625 -33.015625 C 8.46875 -32.347656 8.457031 -31.234375 8.59375 -29.671875 L 9.140625 -21.25 C 9.691406 -21.269531 10.375 -21.378906 11.1875 -21.578125 C 13.695312 -22.148438 15.507812 -23.382812 16.625 -25.28125 C 17.75 -27.175781 18.019531 -29.394531 17.4375 -31.9375 C 16.90625 -34.226562 15.859375 -35.769531 14.296875 -36.5625 C 12.742188 -37.351562 10.640625 -37.441406 7.984375 -36.828125 C 3.640625 -35.828125 0.285156 -33.546875 -2.078125 -29.984375 C -2.179688 -29.804688 -2.34375 -29.546875 -2.5625 -29.203125 C -2.789062 -28.859375 -2.984375 -28.617188 -3.140625 -28.484375 C -3.296875 -28.359375 -3.460938 -28.273438 -3.640625 -28.234375 C -3.847656 -28.179688 -4 -28.195312 -4.09375 -28.28125 C -4.1875 -28.375 -4.257812 -28.523438 -4.3125 -28.734375 C -4.382812 -29.054688 -4.375 -29.429688 -4.28125 -29.859375 C -4.050781 -31.367188 -3.421875 -32.882812 -2.390625 -34.40625 C -1.359375 -35.9375 0.0703125 -37.3125 1.90625 -38.53125 C 3.75 -39.75 5.921875 -40.648438 8.421875 -41.234375 C 12.097656 -42.078125 15.21875 -41.96875 17.78125 -40.90625 C 20.351562 -39.851562 21.960938 -37.929688 22.609375 -35.140625 C 23.171875 -32.734375 22.984375 -30.28125 22.046875 -27.78125 C 21.117188 -25.28125 19.5625 -23.050781 17.375 -21.09375 C 15.195312 -19.132812 12.597656 -17.75 9.578125 -16.9375 L 9.984375 -9.625 C 10.046875 -9.1875 10.007812 -8.726562 9.875 -8.25 C 9.75 -7.78125 9.578125 -7.367188 9.359375 -7.015625 L 9.375 -6.953125 C 9.945312 -6.765625 10.695312 -6.773438 11.625 -6.984375 C 12.113281 -7.097656 12.582031 -7.304688 13.03125 -7.609375 C 13.476562 -7.921875 13.773438 -8.09375 13.921875 -8.125 C 14.085938 -8.164062 14.203125 -8.15625 14.265625 -8.09375 C 14.335938 -8.03125 14.394531 -7.914062 14.4375 -7.75 C 14.5 -7.5 14.492188 -7.242188 14.421875 -6.984375 C 14.359375 -6.734375 14.265625 -6.460938 14.140625 -6.171875 C 13.148438 -4.003906 11.984375 -2.769531 10.640625 -2.46875 C 10.285156 -2.382812 9.859375 -2.335938 9.359375 -2.328125 C 8.859375 -2.328125 8.539062 -2.328125 8.40625 -2.328125 C 7.363281 -2.429688 6.472656 -2.398438 5.734375 -2.234375 C 4.953125 -2.054688 4.257812 -1.742188 3.65625 -1.296875 C 3.050781 -0.859375 2.679688 -0.625 2.546875 -0.59375 Z M 2.546875 -0.59375 "/></g></g></g><g fill="#5e9918" fill-opacity="1"><g transform="translate(168.766193, 207.712092)"><g><path d="M 4.53125 -0.484375 C 3.425781 -0.234375 2.4375 -0.582031 1.5625 -1.53125 C 0.6875 -2.476562 0.0351562 -3.875 -0.390625 -5.71875 C -1.066406 -8.644531 -1.039062 -11.8125 -0.3125 -15.21875 C 0.40625 -18.625 1.765625 -21.625 3.765625 -24.21875 C 5.773438 -26.820312 8.207031 -28.453125 11.0625 -29.109375 C 11.976562 -29.328125 12.910156 -29.429688 13.859375 -29.421875 C 14.804688 -29.421875 15.597656 -29.328125 16.234375 -29.140625 C 16.097656 -28.285156 16.03125 -27.597656 16.03125 -27.078125 C 16.039062 -26.566406 16.046875 -26.238281 16.046875 -26.09375 C 16.097656 -24.757812 16.1875 -22.738281 16.3125 -20.03125 C 16.4375 -17.320312 16.566406 -14.738281 16.703125 -12.28125 C 16.722656 -11.175781 16.800781 -10.34375 16.9375 -9.78125 C 17.019531 -9.394531 17.144531 -9.125 17.3125 -8.96875 C 17.476562 -8.8125 17.679688 -8.765625 17.921875 -8.828125 C 18.523438 -8.960938 18.988281 -9.453125 19.3125 -10.296875 C 19.644531 -11.140625 19.941406 -12.28125 20.203125 -13.71875 C 20.222656 -13.9375 20.269531 -14.128906 20.34375 -14.296875 C 20.425781 -14.460938 20.550781 -14.566406 20.71875 -14.609375 C 21.03125 -14.679688 21.242188 -14.472656 21.359375 -13.984375 C 21.410156 -13.734375 21.445312 -13.53125 21.46875 -13.375 C 21.582031 -12 21.421875 -10.5625 20.984375 -9.0625 C 20.554688 -7.570312 19.898438 -6.273438 19.015625 -5.171875 C 18.140625 -4.078125 17.140625 -3.398438 16.015625 -3.140625 C 15.085938 -2.929688 14.289062 -3.101562 13.625 -3.65625 C 12.957031 -4.207031 12.492188 -5.050781 12.234375 -6.1875 C 12.171875 -6.46875 12.109375 -6.894531 12.046875 -7.46875 L 11.890625 -9.34375 L 11.796875 -9.3125 C 10.941406 -7.03125 9.820312 -5.0625 8.4375 -3.40625 C 7.0625 -1.75 5.757812 -0.773438 4.53125 -0.484375 Z M 6.3125 -6.4375 C 7.09375 -6.613281 7.929688 -7.53125 8.828125 -9.1875 C 9.734375 -10.84375 10.472656 -12.84375 11.046875 -15.1875 C 11.617188 -17.53125 11.835938 -19.785156 11.703125 -21.953125 L 11.609375 -24.125 C 10.609375 -24.4375 9.734375 -24.503906 8.984375 -24.328125 C 7.847656 -24.066406 6.867188 -23.101562 6.046875 -21.4375 C 5.222656 -19.78125 4.703125 -17.765625 4.484375 -15.390625 C 4.273438 -13.023438 4.4375 -10.691406 4.96875 -8.390625 C 5.164062 -7.546875 5.359375 -6.988281 5.546875 -6.71875 C 5.742188 -6.457031 6 -6.363281 6.3125 -6.4375 Z M 6.3125 -6.4375 "/></g></g></g><g fill="#5e9918" fill-opacity="1"><g transform="translate(193.709554, 201.938635)"><g><path d="M 9.078125 20.15625 C 7.523438 20.507812 6.109375 20.425781 4.828125 19.90625 C 3.546875 19.382812 2.507812 18.613281 1.71875 17.59375 C 0.9375 16.570312 0.410156 15.5 0.140625 14.375 C -0.128906 13.164062 -0.078125 12.050781 0.296875 11.03125 C 0.671875 10.007812 1.164062 9.195312 1.78125 8.59375 C 2.40625 7.988281 2.898438 7.644531 3.265625 7.5625 C 3.398438 7.53125 3.515625 7.554688 3.609375 7.640625 C 3.710938 7.722656 3.800781 7.941406 3.875 8.296875 C 4.5625 11.117188 5.390625 13.066406 6.359375 14.140625 C 7.335938 15.222656 8.765625 15.550781 10.640625 15.125 C 13.492188 14.457031 15.257812 12.519531 15.9375 9.3125 C 16.09375 8.53125 16.171875 7.710938 16.171875 6.859375 C 16.179688 6.003906 16.171875 4.367188 16.140625 1.953125 L 15.984375 -4.265625 L 15.875 -9.484375 L 15.765625 -9.46875 C 14.878906 -7.25 13.941406 -5.460938 12.953125 -4.109375 C 11.960938 -2.765625 10.988281 -1.984375 10.03125 -1.765625 C 8.082031 -1.316406 6.625 -3.34375 5.65625 -7.84375 L 3.171875 -19.984375 C 3.015625 -20.878906 2.835938 -21.46875 2.640625 -21.75 C 2.441406 -22.039062 2.164062 -22.144531 1.8125 -22.0625 C 1.46875 -21.988281 1.175781 -21.75 0.9375 -21.34375 C 0.707031 -20.9375 0.457031 -20.289062 0.1875 -19.40625 C -0.0390625 -18.757812 -0.195312 -18.320312 -0.28125 -18.09375 C -0.375 -17.863281 -0.523438 -17.722656 -0.734375 -17.671875 C -0.953125 -17.617188 -1.109375 -17.648438 -1.203125 -17.765625 C -1.304688 -17.878906 -1.394531 -18.09375 -1.46875 -18.40625 C -1.6875 -19.382812 -1.585938 -20.546875 -1.171875 -21.890625 C -0.765625 -23.234375 -0.113281 -24.425781 0.78125 -25.46875 C 1.675781 -26.519531 2.671875 -27.171875 3.765625 -27.421875 C 4.890625 -27.679688 5.785156 -27.394531 6.453125 -26.5625 C 7.128906 -25.738281 7.703125 -24.316406 8.171875 -22.296875 C 8.378906 -21.410156 8.519531 -20.726562 8.59375 -20.25 L 9.890625 -13.453125 C 10.140625 -12.023438 10.304688 -11.144531 10.390625 -10.8125 C 10.609375 -9.832031 10.828125 -9.179688 11.046875 -8.859375 C 11.273438 -8.535156 11.53125 -8.410156 11.8125 -8.484375 C 12.40625 -8.617188 12.976562 -9.382812 13.53125 -10.78125 C 14.09375 -12.175781 14.539062 -13.914062 14.875 -16 C 15.207031 -18.082031 15.375 -20.164062 15.375 -22.25 L 15.40625 -25.5625 C 15.382812 -26.707031 15.84375 -27.859375 16.78125 -29.015625 C 17.726562 -30.179688 18.769531 -30.894531 19.90625 -31.15625 C 20.613281 -31.320312 21.019531 -31.175781 21.125 -30.71875 C 21.15625 -30.582031 21.132812 -30.347656 21.0625 -30.015625 C 20.988281 -29.679688 20.9375 -29.285156 20.90625 -28.828125 C 20.707031 -27.546875 20.628906 -25.597656 20.671875 -22.984375 L 21.0625 -8.5625 L 21.125 -5.890625 C 21.21875 -2.453125 21.242188 0.0664062 21.203125 1.671875 C 21.160156 3.285156 20.992188 4.785156 20.703125 6.171875 C 20.410156 7.554688 19.890625 9.039062 19.140625 10.625 C 17.878906 13.226562 16.363281 15.359375 14.59375 17.015625 C 12.820312 18.671875 10.984375 19.71875 9.078125 20.15625 Z M 9.078125 20.15625 "/></g></g></g><g mask="url(#8d2abbd627)"><g transform="matrix(1, 0, 0, 1, 202, 70)"><g clip-path="url(#57f0757854)"><g clip-path="url(#a083ef5be8)"><path fill="#5e9918" d="M 5.257812 214.859375 C 4.472656 214.859375 3.683594 214.660156 2.96875 214.246094 C 1.175781 213.207031 0.3125 211.097656 0.855469 209.109375 L 55.707031 8.703125 C 56.214844 6.851562 57.828125 5.515625 59.746094 5.363281 C 61.699219 5.25 63.46875 6.28125 64.265625 8.023438 L 109.804688 108.226562 C 110.589844 109.953125 110.21875 111.988281 108.875 113.328125 L 8.484375 213.53125 C 7.605469 214.40625 6.433594 214.859375 5.257812 214.859375 Z M 150.871094 108.222656 L 105.238281 8.019531 C 104.441406 6.265625 102.621094 5.183594 100.714844 5.363281 C 98.796875 5.519531 97.183594 6.863281 96.679688 8.714844 L 88.433594 39.15625 L 118.113281 104.460938 C 120.460938 109.605469 119.34375 115.761719 115.328125 119.761719 L 48.546875 186.417969 L 42.402344 209.117188 C 41.863281 211.113281 42.734375 213.214844 44.523438 214.25 C 45.234375 214.660156 46.023438 214.859375 46.804688 214.859375 C 47.992188 214.859375 49.164062 214.398438 50.039062 213.519531 L 149.953125 113.320312 C 151.289062 111.976562 151.65625 109.945312 150.871094 108.222656 Z M 150.871094 108.222656 " fill-opacity="1" fill-rule="nonzero"/></g></g></g></g><g clip-path="url(#4c389a5f90)"><path fill="#ffa500" d="M 217.515625 289.957031 C 216.730469 289.957031 215.941406 289.753906 215.230469 289.339844 C 213.4375 288.300781 212.574219 286.195312 213.117188 284.203125 L 267.96875 83.796875 C 268.476562 81.949219 270.089844 80.609375 272.007812 80.460938 C 273.960938 80.347656 275.730469 81.375 276.523438 83.121094 L 322.066406 183.320312 C 322.851562 185.046875 322.480469 187.085938 321.136719 188.421875 L 220.742188 288.625 C 219.867188 289.5 218.695312 289.957031 217.515625 289.957031 Z M 363.128906 183.316406 L 317.496094 83.113281 C 316.703125 81.363281 314.882812 80.277344 312.976562 80.460938 C 311.058594 80.613281 309.445312 81.957031 308.941406 83.8125 L 300.695312 114.25 L 330.375 179.554688 C 332.722656 184.703125 331.601562 190.855469 327.585938 194.859375 L 260.808594 261.511719 L 254.660156 284.210938 C 254.125 286.207031 254.996094 288.3125 256.785156 289.347656 C 257.496094 289.753906 258.285156 289.957031 259.066406 289.957031 C 260.25 289.957031 261.425781 289.496094 262.300781 288.617188 L 362.214844 188.414062 C 363.550781 187.070312 363.914062 185.039062 363.128906 183.316406 Z M 363.128906 183.316406 " fill-opacity="1" fill-rule="nonzero"/></g></svg>